<svg id="visual" viewBox="0 0 600 900" width="600" height="900" xmlns="http://www.w3.org/2000/svg" xmlns:xlink="http://www.w3.org/1999/xlink" version="1.1"><path d="M0 786L33.3 787C66.7 788 133.3 790 200 782.3C266.7 774.7 333.3 757.3 400 757.8C466.7 758.3 533.3 776.7 566.7 785.8L600 795L600 901L566.7 901C533.3 901 466.7 901 400 901C333.3 901 266.7 901 200 901C133.3 901 66.7 901 33.3 901L0 901Z" fill="#047857"></path><path d="M0 795L33.3 801.5C66.7 808 133.3 821 200 829.8C266.7 838.7 333.3 843.3 400 841.7C466.7 840 533.3 832 566.7 828L600 824L600 901L566.7 901C533.3 901 466.7 901 400 901C333.3 901 266.7 901 200 901C133.3 901 66.7 901 33.3 901L0 901Z" fill="#10b981"></path></svg>